<?xml version="1.0" encoding="utf-8"?>
<!-- Generator: Adobe Illustrator 21.0.2, SVG Export Plug-In . SVG Version: 6.00 Build 0)  -->
<svg version="1.1" id="Layer_1" xmlns="http://www.w3.org/2000/svg" xmlns:xlink="http://www.w3.org/1999/xlink" x="0px" y="0px"
	 viewBox="0 0 100 100" style="enable-background:new 0 0 100 100;" xml:space="preserve">
<path d="M50,5C25.2,5,5,25.1,5,50c0,24.8,20.2,45,45,45s45-20.2,45-45C95,25.1,74.8,5,50,5z M50,89c-21.5,0-39-17.5-39-39
	s17.5-39,39-39s39,17.5,39,39S71.5,89,50,89z M52,17v6c0,1.1-0.9,2-2,2s-2-0.9-2-2v-6c0-1.1,0.9-2,2-2S52,15.9,52,17z M52,77v6
	c0,1.1-0.9,2-2,2s-2-0.9-2-2v-6c0-1.1,0.9-2,2-2S52,75.9,52,77z M74.8,74.8c-0.4,0.4-0.9,0.6-1.4,0.6c-0.5,0-1-0.2-1.4-0.6l-4.2-4.2
	c-0.8-0.8-0.8-2.1,0-2.8c0.8-0.8,2-0.8,2.8,0l4.2,4.2C75.5,72.7,75.5,74,74.8,74.8z M32.3,32.3c-0.4,0.4-0.9,0.6-1.4,0.6
	c-0.5,0-1-0.2-1.4-0.6l-4.2-4.2c-0.8-0.8-0.8-2,0-2.8c0.8-0.8,2-0.8,2.8,0l4.2,4.2C33.1,30.3,33.1,31.5,32.3,32.3z M85,50
	c0,1.1-0.9,2-2,2h-6c-1.1,0-2-0.9-2-2c0-1.1,0.9-2,2-2h6C84.1,48,85,48.9,85,50z M25,50c0,1.1-0.9,2-2,2h-6c-1.1,0-2-0.9-2-2
	c0-1.1,0.9-2,2-2h6C24.1,48,25,48.9,25,50z M32.3,70.5l-4.2,4.2c-0.4,0.4-0.9,0.6-1.4,0.6c-0.5,0-1-0.2-1.4-0.6
	c-0.8-0.8-0.8-2,0-2.8l4.2-4.2c0.8-0.8,2-0.8,2.8,0C33.1,68.5,33.1,69.7,32.3,70.5z M74.8,28.1l-4.2,4.2c-0.4,0.4-0.9,0.6-1.4,0.6
	c-0.5,0-1-0.2-1.4-0.6c-0.8-0.8-0.8-2.1,0-2.8l4.2-4.2c0.8-0.8,2-0.8,2.8,0C75.5,26,75.5,27.3,74.8,28.1z M52,44.3V31
	c0-1.1-0.9-2-2-2s-2,0.9-2,2v13.3c-1.7,0.6-3,2-3.7,3.7H35c-1.1,0-2,0.9-2,2c0,1.1,0.9,2,2,2h9.3c0.8,2.3,3,4,5.7,4c3.3,0,6-2.7,6-6
	C56,47.4,54.3,45.2,52,44.3z M50,52c-1.1,0-2-0.9-2-2c0-1.1,0.9-2,2-2s2,0.9,2,2C52,51.1,51.1,52,50,52z"/>
</svg>
